<svg width="39" height="35" viewBox="0 0 39 35" fill="none" xmlns="http://www.w3.org/2000/svg">
<path d="M37.9786 17.2132L20.7625 0.383302C20.6386 0.261796 20.4913 0.165398 20.3293 0.0996266C20.1672 0.0338548 19.9934 0 19.8179 0C19.6424 0 19.4687 0.0338548 19.3066 0.0996266C19.1445 0.165398 18.9973 0.261796 18.8733 0.383302L1.65721 17.2132C1.15565 17.7039 0.871429 18.3704 0.871429 19.0655C0.871429 20.5089 2.071 21.6824 3.54643 21.6824H5.36041V33.6915C5.36041 34.4153 5.9581 35 6.69791 35H17.1429V25.8408H21.8242V35H32.938C33.6778 35 34.2754 34.4153 34.2754 33.6915V21.6824H36.0894C36.8 21.6824 37.4813 21.4085 37.9828 20.9137C39.0236 19.8915 39.0236 18.2355 37.9786 17.2132Z" fill="currentColor"/>
</svg>
