<svg width="39" height="39" viewBox="0 0 39 39" fill="none" xmlns="http://www.w3.org/2000/svg">
<path d="M4.74916 7.79488H8.63546V13.641H28.067V7.79488H31.9533V17.5385H35.8396V7.79488C35.8396 5.65128 34.0907 3.89744 31.9533 3.89744H23.8309C23.0148 1.63692 20.8773 0 18.3512 0C15.8251 0 13.6877 1.63692 12.8715 3.89744H4.74916C2.61169 3.89744 0.862858 5.65128 0.862858 7.79488V35.0769C0.862858 37.2205 2.61169 38.9744 4.74916 38.9744H16.4081V35.0769H4.74916V7.79488ZM18.3512 3.89744C19.42 3.89744 20.2944 4.77436 20.2944 5.84616C20.2944 6.91795 19.42 7.79488 18.3512 7.79488C17.2825 7.79488 16.4081 6.91795 16.4081 5.84616C16.4081 4.77436 17.2825 3.89744 18.3512 3.89744Z" fill="black"/>
<path d="M35.8395 20.4619L25.1716 31.1799L19.3228 25.3337L16.408 28.2568L25.1716 37.026L38.7543 23.385L35.8395 20.4619Z" fill="black"/>
</svg>
