<svg width="45" height="44" viewBox="0 0 45 44" fill="none" xmlns="http://www.w3.org/2000/svg">
<path d="M21.3461 20.083V41.9689L19.8836 42.6992L0.871429 33.2282V9.49378L19.8836 0L38.8958 9.49378V26.473H35.9709V12.7801L21.3461 20.083ZM19.8836 3.28631L14.3765 6.0249L28.5671 13.1909L34.1656 10.4066L19.8836 3.28631ZM18.4211 38.7054V20.083L3.79638 12.7801V31.4025L18.4211 38.7054ZM5.60163 10.4066L19.8836 17.527L25.3222 14.834L11.1088 7.66805L5.60163 10.4066ZM30.121 38.1577V35.2365H44.7457V38.1577H30.121ZM30.121 29.3942H44.7457V32.3154H30.121V29.3942ZM24.271 44V41.0788H27.196V44H24.271ZM24.271 32.3154V29.3942H27.196V32.3154H24.271ZM24.271 38.1577V35.2365H27.196V38.1577H24.271ZM21.3461 38.7054H21.3689H21.3461ZM30.121 44V41.0788H44.7457V44H30.121Z" fill="white"/>
</svg>
