<svg className='svg-icon' width="45" height="44" viewBox="0 0 45 44" fill="none" xmlns="http://www.w3.org/2000/svg">
<path d="M21.346 20.083V41.9689L19.8835 42.6992L0.871338 33.2282V9.49378L19.8835 0L38.8957 9.49378V26.473H35.9708V12.7801L21.346 20.083ZM19.8835 3.28631L14.3764 6.0249L28.567 13.1909L34.1655 10.4066L19.8835 3.28631ZM18.4211 38.7054V20.083L3.79629 12.7801V31.4025L18.4211 38.7054ZM5.60153 10.4066L19.8835 17.527L25.3221 14.834L11.1087 7.66805L5.60153 10.4066ZM30.1209 38.1577V35.2365H44.7456V38.1577H30.1209ZM30.1209 29.3942H44.7456V32.3154H30.1209V29.3942ZM24.271 44V41.0788H27.1959V44H24.271ZM24.271 32.3154V29.3942H27.1959V32.3154H24.271ZM24.271 38.1577V35.2365H27.1959V38.1577H24.271ZM21.346 38.7054H21.3689H21.346ZM30.1209 44V41.0788H44.7456V44H30.1209Z" fill="currentColor"/>
</svg>
