<svg width="36" height="33" viewBox="0 0 36 33" fill="none" xmlns="http://www.w3.org/2000/svg">
<path d="M28.2994 18.37L21.5944 23.8333H12.5967V22H19.9118C20.0746 21.9999 20.2342 21.9549 20.3739 21.8696C20.5135 21.7844 20.6278 21.6622 20.7046 21.516C20.7814 21.3698 20.8179 21.2052 20.8101 21.0395C20.8023 20.8739 20.7506 20.7135 20.6604 20.5755L19.0624 18.1335C18.7346 17.6308 18.2898 17.2186 17.7676 16.9336C17.2455 16.6486 16.6622 16.4996 16.0698 16.5H1.79953C1.32227 16.5 0.864548 16.6932 0.52707 17.037C0.189593 17.3808 0 17.8471 0 18.3333V29.3333C0 30.3058 0.379186 31.2384 1.05414 31.9261C1.7291 32.6137 2.64453 33 3.59906 33H20.9447C21.7142 33.0002 22.4749 32.8328 23.1757 32.509C23.8765 32.1852 24.5012 31.7125 25.0081 31.1227L35.9906 18.3333L33.3777 17.446C32.5228 17.1557 31.6102 17.0882 30.7231 17.2496C29.8361 17.411 29.0028 17.7962 28.2994 18.37ZM31.0563 8.04833C31.8679 7.19583 32.37 6.017 32.37 4.71533C32.37 3.41367 31.8679 2.23483 31.0563 1.38233C30.6459 0.94596 30.1531 0.598576 29.6076 0.361034C29.0621 0.123492 28.4752 0.000690501 27.8819 1.1809e-07C27.8819 1.1809e-07 25.6433 -0.00550032 23.3939 2.35767C21.1445 -0.00550032 18.9059 1.1809e-07 18.9059 1.1809e-07C18.3128 0.000768468 17.726 0.123426 17.1806 0.360631C16.6351 0.597835 16.1423 0.944712 15.7315 1.3805C14.9199 2.23483 14.4178 3.41183 14.4178 4.7135C14.4178 6.01517 14.9199 7.19583 15.7315 8.0465L23.3939 16.5L31.0563 8.04833Z" fill="black"/>
</svg>
