<svg className='svg-icon' width="35" height="30" viewBox="0 0 35 30" fill="none" xmlns="http://www.w3.org/2000/svg">
<path d="M0 4.37428C0 1.95968 2.28667 0 5.10417 0H21.1458C23.9662 0 26.25 1.95968 26.25 4.37428V4.99918H27.3642C28.1771 4.9992 28.9739 5.19333 29.6653 5.55978C30.3567 5.92624 30.9152 6.45052 31.2783 7.07384L34.5392 12.6604C34.8426 13.1813 35.0004 13.7555 35 14.3376V22.4963C35 23.4907 34.5391 24.4444 33.7186 25.1475C32.8981 25.8507 31.7853 26.2457 30.625 26.2457H28.9829C28.6606 27.3199 27.9306 28.2718 26.9079 28.9515C25.8851 29.6311 24.6276 30 23.3333 30C22.0391 30 20.7816 29.6311 19.7588 28.9515C18.736 28.2718 18.006 27.3199 17.6837 26.2457H14.3996C14.067 27.3523 13.302 28.3279 12.232 29.01C11.1621 29.692 9.8518 30.0393 8.51939 29.994C7.18698 29.9487 5.9129 29.5135 4.90937 28.761C3.90583 28.0085 3.23343 26.984 3.00417 25.8582C2.10887 25.5119 1.34921 24.9515 0.816338 24.2443C0.283464 23.5372 1.31967e-05 22.7132 0 21.8714V4.37428ZM26.25 7.49877V12.4979H31.1821L28.6679 8.18865C28.5467 7.98132 28.3605 7.80698 28.1303 7.68514C27.9 7.56331 27.6348 7.49877 27.3642 7.49877H26.25ZM8.75 22.4963C7.97645 22.4963 7.23459 22.7597 6.68761 23.2284C6.14062 23.6972 5.83333 24.333 5.83333 24.9959C5.83333 25.6588 6.14062 26.2946 6.68761 26.7634C7.23459 27.2321 7.97645 27.4955 8.75 27.4955C9.52355 27.4955 10.2654 27.2321 10.8124 26.7634C11.3594 26.2946 11.6667 25.6588 11.6667 24.9959C11.6667 24.333 11.3594 23.6972 10.8124 23.2284C10.2654 22.7597 9.52355 22.4963 8.75 22.4963ZM20.4167 24.9959C20.4167 25.6588 20.724 26.2946 21.2709 26.7634C21.8179 27.2321 22.5598 27.4955 23.3333 27.4955C24.1069 27.4955 24.8487 27.2321 25.3957 26.7634C25.9427 26.2946 26.25 25.6588 26.25 24.9959C26.25 24.333 25.9427 23.6972 25.3957 23.2284C24.8487 22.7597 24.1069 22.4963 23.3333 22.4963C22.5598 22.4963 21.8179 22.7597 21.2709 23.2284C20.724 23.6972 20.4167 24.333 20.4167 24.9959Z" fill="currentColor"/>
</svg>
